<?xml version="1.0" encoding="UTF-8"?>
<svg version="1.1" xmlns="http://www.w3.org/2000/svg" width="294" height="267">
<path d="M0 0 C1.43438809 0.24419599 1.43438809 0.24419599 2.89775372 0.49332523 C7.4816845 1.14331071 12.01358521 1.12923827 16.63594055 1.10679626 C17.58789454 1.10623956 18.53984853 1.10568285 19.52064961 1.10510927 C22.70039744 1.10208084 25.88008188 1.09190256 29.05981445 1.08178711 C31.34328648 1.07822987 33.62675928 1.07514419 35.91023254 1.07249451 C40.8216424 1.06595041 45.73303397 1.05639573 50.64443398 1.04459953 C58.40408049 1.02630737 66.16372258 1.01670866 73.92338562 1.00868225 C84.79536369 0.99677951 95.66733562 0.98280158 106.53930664 0.96557617 C107.57331588 0.96394099 107.57331588 0.96394099 108.6282142 0.96227277 C118.42516375 0.9466403 128.22210549 0.92804066 138.01904746 0.9082749 C139.05533064 0.90618493 139.05533064 0.90618493 140.11254883 0.90405273 C140.80256193 0.9026592 141.49257503 0.90126567 142.20349763 0.89982992 C153.6959516 0.87682032 165.18839545 0.86160587 176.68086976 0.85249335 C184.40181217 0.84593461 192.12266825 0.83034399 199.84358084 0.80817592 C204.63462446 0.79648592 209.42564676 0.79308091 214.21670341 0.79207802 C216.44604221 0.78992196 218.67538061 0.78430117 220.90470123 0.7750473 C223.93620199 0.76294549 226.96746034 0.76299872 229.99897766 0.76622009 C230.89107714 0.75971229 231.78317663 0.75320449 232.70230943 0.74649948 C238.77178528 0.77178528 238.77178528 0.77178528 241 3 C241.265625 5.0234375 241.265625 5.0234375 241.25 7.375 C241.25773437 8.53128906 241.25773437 8.53128906 241.265625 9.7109375 C240.97688045 12.1992361 240.24139229 13.84234198 239 16 C239.66 16 240.32 16 241 16 C240.95897911 17.32007805 240.95897911 17.32007805 240.91712952 18.66682434 C240.13721329 44.88314105 239.85108516 71.0982248 239.68359375 97.32421875 C239.6786135 98.09904799 239.67363326 98.87387722 239.66850209 99.67218614 C239.58337199 113.01057967 239.51165723 126.34903925 239.4375 139.6875 C239.293125 164.540625 239.14875 189.39375 239 215 C160.79 215 82.58 215 2 215 C1.5625 118.1875 1.5625 118.1875 1.43188477 87.70385742 C1.38859615 78.62704937 1.38859615 78.62704937 1.34410095 69.55024719 C1.32443085 65.5310888 1.30728694 61.51192847 1.29173279 57.49275208 C1.27172136 52.34388849 1.24723317 47.19506335 1.21969402 42.04623473 C1.21038868 40.1704611 1.20257071 38.29467925 1.19653046 36.41889226 C1.15625566 24.25003676 0.74519794 12.14642713 0 0 Z M212.125 23 C211.568125 23.99 211.568125 23.99 211 25 C210.67 25 210.34 25 210 25 C210 76.81 210 128.62 210 182 C156.54 182 103.08 182 48 182 C48 186.95 48 191.9 48 197 C106.08 197 164.16 197 224 197 C224.061875 169.445 224.12375 141.89 224.1875 113.5 C224.21481201 104.80205078 224.24212402 96.10410156 224.27026367 87.14257812 C224.28029748 79.34027278 224.28029748 79.34027278 224.28633118 71.53796387 C224.28912415 68.06492351 224.30035868 64.59202098 224.31672668 61.11901855 C224.33734631 56.68497064 224.34346565 52.25112232 224.33921683 47.81703091 C224.34010492 46.19224143 224.34602882 44.56744477 224.35764539 42.94269657 C224.47718282 31.63449517 224.47718282 31.63449517 221 21 C216.0140885 20.38664279 216.0140885 20.38664279 212.125 23 Z M18 23 C18 80.42 18 137.84 18 197 C22.29 197 26.58 197 31 197 C32.15041992 171.74448296 32.15536234 146.5018459 32.13037109 121.22485352 C32.12460428 115.30769174 32.12801224 109.39057466 32.13394356 103.47341442 C32.13755929 98.86910159 32.13640712 94.26479937 32.13381577 89.66048622 C32.13315293 87.47692166 32.13395221 85.29335611 32.13629532 83.10979271 C32.13884633 80.07341317 32.13494998 77.03710655 32.12939453 74.00073242 C32.13243088 72.67527657 32.13243088 72.67527657 32.13552856 71.32304382 C32.11910508 66.4558281 31.83734611 61.7157244 31.22683716 56.88571644 C30.95002613 54.58456301 30.87070701 52.31684606 30.8671875 50 C30.86589844 49.17628906 30.86460938 48.35257813 30.86328125 47.50390625 C30.86714844 46.67761719 30.87101562 45.85132812 30.875 45 C30.87113281 44.14277344 30.86726563 43.28554687 30.86328125 42.40234375 C30.87322669 36.12677331 30.87322669 36.12677331 32 35 C34.38940834 34.87084279 36.46859474 34.85080743 38.78199387 35.50029659 C41.62303915 36.14036696 44.26231247 36.12269037 47.17559814 36.12025452 C48.44321991 36.12162918 49.71084167 36.12300385 51.01687622 36.12442017 C52.41912865 36.12088125 53.82138085 36.11724644 55.22363281 36.11352539 C56.70203652 36.11324328 58.18044037 36.11340172 59.65884399 36.1139679 C63.67088814 36.11425494 67.68290241 36.10837318 71.69493961 36.10139394 C75.88832002 36.09514498 80.0817011 36.09455538 84.27508545 36.09336853 C92.21521871 36.09025977 100.15533822 36.0820525 108.09546542 36.07201904 C117.13528756 36.06084379 126.17511036 36.05534389 135.21493769 36.05032361 C153.80996626 36.03986953 172.40498202 36.02227887 191 36 C191 35.34 191 34.68 191 34 C191.66 34 192.32 34 193 34 C194.12668965 30.61993106 193.89636912 30.0359269 192.625 26.875 C192.34914062 26.17117187 192.07328125 25.46734375 191.7890625 24.7421875 C191.12815182 23.01068872 191.12815182 23.01068872 190 22 C187.64780717 21.91717503 185.32489456 21.89886888 182.97290039 21.92211914 C181.86358689 21.9265783 181.86358689 21.9265783 180.73186302 21.93112755 C179.1097556 21.93773802 177.48765562 21.9464015 175.86556816 21.95681572 C171.41447874 21.98413989 166.96336783 21.99279594 162.51220703 22.00048828 C161.57353381 22.00222644 160.63486059 22.0039646 159.66774273 22.00575542 C149.23429577 22.01608094 138.80340811 21.88752805 128.37109375 21.74609375 C126.46888301 21.72118358 124.5666715 21.6963322 122.66445923 21.67153931 C114.93647591 21.56969692 107.20856361 21.4632554 99.48071289 21.35180664 C94.65069382 21.28242095 89.82062845 21.21823595 84.99049568 21.15730476 C83.17842924 21.13339545 81.36638791 21.10748892 79.55438042 21.07946587 C77.05248656 21.0408447 74.55058752 21.00882356 72.04858398 20.97827148 C71.31791214 20.96532547 70.5872403 20.95237946 69.83442688 20.93904114 C65.76709887 20.8971766 61.99298182 21.24713867 58 22 C56.36414814 22.0143411 54.72684118 21.9749801 53.09375 21.87890625 C52.19124512 21.83032471 51.28874023 21.78174316 50.35888672 21.73168945 C48.94373779 21.64794067 48.94373779 21.64794067 47.5 21.5625 C45.53396238 21.46141461 43.56781422 21.36245663 41.6015625 21.265625 C40.16925293 21.19504883 40.16925293 21.19504883 38.70800781 21.12304688 C35.09508762 20.95888245 31.49158317 20.85818316 27.875 20.8125 C26.29332031 20.79123047 26.29332031 20.79123047 24.6796875 20.76953125 C21.65832443 20.86339971 21.65832443 20.86339971 18 23 Z M31 38 C31 43.61 31 49.22 31 55 C31.33 55 31.66 55 32 55 C32 49.39 32 43.78 32 38 C31.67 38 31.34 38 31 38 Z M45 57 C43.00234653 62.99296041 43.09115089 65.33401277 44.75 71 C44.97316895 71.80469727 45.19633789 72.60939453 45.42626953 73.43847656 C48.04224472 82.60371431 51.1391917 91.62268988 54.19311523 100.64916992 C59.31653413 115.7994353 63.88073466 131.1062814 68.35742188 146.45800781 C69.78947715 151.34884067 71.33612959 156.18353303 73 161 C77.95 161 82.9 161 88 161 C88.39791748 159.71536865 88.79583496 158.4307373 89.20581055 157.10717773 C90.7045275 152.27025225 92.20536219 147.43398591 93.70678711 142.59790039 C94.35220783 140.51799718 94.9970795 138.4379235 95.64135742 136.35766602 C101.78005258 116.53926789 101.78005258 116.53926789 104.76953125 107.6953125 C106.69536723 101.98515532 108.41071855 96.24907714 110 90.4375 C112.04667029 83.05364524 114.36255222 75.93014492 117.21484375 68.8125 C118.0695885 65.75072776 117.8926614 64.01619753 117 61 C117.99 61 118.98 61 120 61 C119.16666667 58.83333333 119.16666667 58.83333333 117 58 C117 57.67 117 57.34 117 57 C113.7 57 110.4 57 107 57 C107 57.66 107 58.32 107 59 C106.01 59.33 105.02 59.66 104 60 C100.35027945 62.59288125 99.49410593 66.74353635 98.1875 70.81640625 C97.93250732 71.58750229 97.67751465 72.35859833 97.41479492 73.15306091 C96.60138936 75.62018261 95.8007108 78.09123281 95 80.5625 C94.46173554 82.19883044 93.92268111 83.83490124 93.3828125 85.47070312 C90.81308386 93.28135824 88.2863669 101.10090747 86 109 C85.77666992 109.76916748 85.55333984 110.53833496 85.32324219 111.33081055 C84.01579978 115.84261936 84.01579978 115.84261936 82.71875 120.35742188 C81.11151825 125.88848175 81.11151825 125.88848175 80 127 C77.05245937 119.21671104 74.55670542 111.369231 72.25 103.375 C69.19335225 92.90878203 65.97870175 82.50554149 62.61425781 72.13427734 C60.98574974 67.11067304 59.40762091 62.09018471 58 57 C53.71 57 49.42 57 45 57 Z M133.25 67.9375 C127.52530837 75.72944139 127.27085911 85.45788868 128.5625 94.8125 C130.08506792 101.83266214 134.39959096 107.47364795 140.0703125 111.8515625 C145.87583816 115.30667291 152.47329147 117.41163529 159.00390625 119.02734375 C159.6697876 119.19226318 160.33566895 119.35718262 161.02172852 119.52709961 C162.90524473 119.97734901 164.79628051 120.39579062 166.6875 120.8125 C170.57786812 122.20716027 172.41124223 123.8068815 175 127 C176.584591 130.95385928 176.24989571 134.27807906 174.875 138.25 C172.79065073 141.3070456 171.10235533 142.97709433 168 145 C164.40625 145.53125 164.40625 145.53125 160.5 145.5 C159.2109375 145.5103125 157.921875 145.520625 156.59375 145.53125 C152.47457165 144.92232798 150.89638905 143.93278891 148 141 C146.40350447 138.74935301 145.27783457 136.46101472 144 134 C142.10306139 134.28438952 140.20747973 134.57783792 138.3125 134.875 C137.25675781 135.03742188 136.20101562 135.19984375 135.11328125 135.3671875 C132.20205086 135.95893069 129.71044393 136.8031806 127 138 C130.2657681 148.16016742 135.42368465 155.00974476 145 160 C154.76258254 164.31180729 164.94924796 164.41873679 174.9375 160.8125 C182.81123611 157.42584483 187.22187821 153.69057679 191 146 C191.5775 145.01 192.155 144.02 192.75 143 C195.4587874 136.33337324 195.1030857 127.85569306 193.15625 121.05078125 C189.45738952 112.89079513 183.15327282 107.50094608 175 104 C170.60964335 102.80519938 166.15334199 101.90492857 161.69921875 100.98242188 C155.59957769 99.63421795 150.18071009 98.31847188 146.5625 92.8125 C145.7447388 88.72369401 145.94924877 85.03669898 147 81 C149.25089156 77.97293894 151.57073455 76.46968519 155 75 C160.93956226 74.13128851 166.12284399 74.76343561 171.37109375 77.7109375 C173.88285521 79.6986624 174.92407833 82.04121541 176 85 C182.41991126 84.42934122 188.01589463 82.32655091 194 80 C188.8045004 68.44830407 183.94561217 62.73454141 172 58 C158.09561575 55.04833499 143.11674317 56.78750989 133.25 67.9375 Z " fill="#1F2C33" transform="translate(25,24)"/>
<path d="M0 0 C97.02 0 194.04 0 294 0 C294 88.11 294 176.22 294 267 C196.98 267 99.96 267 0 267 C0 178.89 0 90.78 0 0 Z M13 12 C13 14.97 13 17.94 13 21 C13.33 21 13.66 21 14 21 C14.33 18.03 14.66 15.06 15 12 C14.34 12 13.68 12 13 12 Z M15 14 C14.80426392 15.43640171 14.61872184 16.87419504 14.4375 18.3125 C14.33308594 19.11300781 14.22867187 19.91351563 14.12109375 20.73828125 C13.85244822 23.16817116 13.85244822 23.16817116 15 26 C14.34 26 13.68 26 13 26 C13 100.91 13 175.82 13 253 C100.45 253 187.9 253 278 253 C278.04125 214.493125 278.0825 175.98625 278.125 136.3125 C278.14320801 124.14157471 278.16141602 111.97064941 278.18017578 99.4309082 C278.18686352 88.54695949 278.18686352 88.54695949 278.19088745 77.66300964 C278.19275518 72.80487756 278.20026777 67.94678893 278.21115112 63.08866882 C278.22483801 56.89737899 278.2289881 50.70615262 278.22614455 44.51484907 C278.22673942 42.23918343 278.23072373 39.96351565 278.23843026 37.68786299 C278.24833906 34.62010016 278.24599422 31.55258572 278.24050903 28.4848175 C278.24924703 27.14132626 278.24924703 27.14132626 278.25816154 25.77069378 C278.23735152 21.45723833 278.19015936 17.85572607 276 14 C274.03871245 13.1762044 274.03871245 13.1762044 272 13 C271.34 12.67 270.68 12.34 270 12 C268.64154807 11.91097507 267.27884026 11.88239868 265.91748047 11.88647461 C265.07675995 11.88655014 264.23603943 11.88662567 263.36984253 11.88670349 C262.46146637 11.89186478 261.55309021 11.89702606 260.6171875 11.90234375 C259.68778351 11.9037587 258.75837952 11.90517365 257.80081177 11.90663147 C254.82550876 11.91223947 251.85028036 11.92479332 248.875 11.9375 C246.86067817 11.94251397 244.84635516 11.94707705 242.83203125 11.95117188 C237.88799198 11.9622115 232.94400865 11.97948151 228 12 C228 12.33 228 12.66 228 13 C225.77090129 13.02714735 223.54170633 13.04646254 221.3125 13.0625 C220.07113281 13.07410156 218.82976562 13.08570313 217.55078125 13.09765625 C214.5232433 13.01439063 211.93809226 12.65290939 209 12 C207.0003559 11.96227087 204.99945939 11.95350094 203 12 C203 12.33 203 12.66 203 13 C200.36 13 197.72 13 195 13 C195 12.67 195 12.34 195 12 C191.85418577 11.97111486 188.70840531 11.95324077 185.5625 11.9375 C184.66466797 11.92912109 183.76683594 11.92074219 182.84179688 11.91210938 C181.98779297 11.90888672 181.13378906 11.90566406 180.25390625 11.90234375 C179.46314697 11.89710693 178.6723877 11.89187012 177.85766602 11.88647461 C175.98407311 11.79504091 175.98407311 11.79504091 175 13 C175 12.67 175 12.34 175 12 C170.34947128 11.73067479 170.34947128 11.73067479 166 13 C163.33592873 13.09832623 160.69801528 13.13629706 158.03369141 13.12939453 C156.79931084 13.13202301 156.79931084 13.13202301 155.53999329 13.13470459 C152.81049511 13.13911779 150.08106137 13.13618644 147.3515625 13.1328125 C145.45828234 13.13348582 143.56500227 13.13445608 141.67172241 13.13571167 C137.69878315 13.13718803 133.72586634 13.13503655 129.75292969 13.13037109 C124.65952575 13.12468162 119.56617459 13.12794825 114.4727726 13.13394356 C110.56087853 13.13755746 106.64899696 13.13640662 102.73710251 13.13381577 C100.85921599 13.13314839 98.98132834 13.13396831 97.10344315 13.13629532 C94.47729743 13.13883455 91.85123702 13.13496289 89.22509766 13.12939453 C88.44780807 13.13141876 87.67051849 13.13344299 86.86967468 13.13552856 C83.40391009 13.12191378 80.34150646 12.8901865 77 12 C74.78228936 12.85790183 74.78228936 12.85790183 73 14 C73 13.34 73 12.68 73 12 C72.195625 12 71.39125 12 70.5625 12 C68.03274431 12 65.50404847 11.98846559 62.97436523 11.96826172 C58.171333 11.93199876 53.36831489 11.90906904 48.56518555 11.89013672 C46.49257358 11.88010612 44.41997567 11.86647842 42.34741211 11.84912109 C39.35527074 11.82471108 36.36331694 11.81348112 33.37109375 11.8046875 C32.4530748 11.79436493 31.53505585 11.78404236 30.58921814 11.77340698 C25.04566244 11.7724522 20.32241335 12.43146009 15 14 Z M117 12 C117 12.33 117 12.66 117 13 C119.31 13 121.62 13 124 13 C124 12.67 124 12.34 124 12 C121.69 12 119.38 12 117 12 Z " fill="#2B363D" transform="translate(0,0)"/>
<path d="M0 0 C1.43438809 0.24419599 1.43438809 0.24419599 2.89775372 0.49332523 C7.4816845 1.14331071 12.01358521 1.12923827 16.63594055 1.10679626 C17.58789454 1.10623956 18.53984853 1.10568285 19.52064961 1.10510927 C22.70039744 1.10208084 25.88008188 1.09190256 29.05981445 1.08178711 C31.34328648 1.07822987 33.62675928 1.07514419 35.91023254 1.07249451 C40.8216424 1.06595041 45.73303397 1.05639573 50.64443398 1.04459953 C58.40408049 1.02630737 66.16372258 1.01670866 73.92338562 1.00868225 C84.79536369 0.99677951 95.66733562 0.98280158 106.53930664 0.96557617 C107.57331588 0.96394099 107.57331588 0.96394099 108.6282142 0.96227277 C118.42516375 0.9466403 128.22210549 0.92804066 138.01904746 0.9082749 C139.05533064 0.90618493 139.05533064 0.90618493 140.11254883 0.90405273 C140.80256193 0.9026592 141.49257503 0.90126567 142.20349763 0.89982992 C153.6959516 0.87682032 165.18839545 0.86160587 176.68086976 0.85249335 C184.40181217 0.84593461 192.12266825 0.83034399 199.84358084 0.80817592 C204.63462446 0.79648592 209.42564676 0.79308091 214.21670341 0.79207802 C216.44604221 0.78992196 218.67538061 0.78430117 220.90470123 0.7750473 C223.93620199 0.76294549 226.96746034 0.76299872 229.99897766 0.76622009 C230.89107714 0.75971229 231.78317663 0.75320449 232.70230943 0.74649948 C238.77178528 0.77178528 238.77178528 0.77178528 241 3 C241.265625 5.0234375 241.265625 5.0234375 241.25 7.375 C241.25773437 8.53128906 241.25773437 8.53128906 241.265625 9.7109375 C240.97688045 12.1992361 240.24139229 13.84234198 239 16 C239.66 16 240.32 16 241 16 C240.95897911 17.32007805 240.95897911 17.32007805 240.91712952 18.66682434 C240.13721329 44.88314105 239.85108516 71.0982248 239.68359375 97.32421875 C239.6786135 98.09904799 239.67363326 98.87387722 239.66850209 99.67218614 C239.58337199 113.01057967 239.51165723 126.34903925 239.4375 139.6875 C239.293125 164.540625 239.14875 189.39375 239 215 C160.79 215 82.58 215 2 215 C1.5625 118.1875 1.5625 118.1875 1.43188477 87.70385742 C1.38859615 78.62704937 1.38859615 78.62704937 1.34410095 69.55024719 C1.32443085 65.5310888 1.30728694 61.51192847 1.29173279 57.49275208 C1.27172136 52.34388849 1.24723317 47.19506335 1.21969402 42.04623473 C1.21038868 40.1704611 1.20257071 38.29467925 1.19653046 36.41889226 C1.15625566 24.25003676 0.74519794 12.14642713 0 0 Z M3 3 C3 72.63 3 142.26 3 214 C80.55 214 158.1 214 238 214 C238 144.37 238 74.74 238 3 C160.45 3 82.9 3 3 3 Z " fill="#F7F8F8" transform="translate(25,24)"/>
<path d="M0 0 C58.74 0 117.48 0 178 0 C178 5.61 178 11.22 178 17 C157.04275051 17.02312352 136.08550407 17.04098156 115.1282444 17.05181217 C105.39799186 17.0569741 95.66774737 17.06401484 85.9375 17.07543945 C77.45916087 17.08538944 68.98082758 17.09185418 60.50248277 17.09408849 C56.0109824 17.09539506 51.51949873 17.09847755 47.02800369 17.10573006 C42.8042788 17.11249522 38.58057756 17.11461594 34.35684776 17.11310768 C32.8031813 17.11338378 31.24951408 17.11538598 29.69585228 17.11920547 C27.58143593 17.12415045 25.46710991 17.12299529 23.35269165 17.12025452 C22.16726587 17.12117631 20.9818401 17.1220981 19.76049232 17.12304783 C17 17 17 17 15 16 C14.67 22.27 14.34 28.54 14 35 C13.67 35 13.34 35 13 35 C12.94208156 31.87507749 12.90643254 28.75029234 12.875 25.625 C12.85824219 24.73554687 12.84148438 23.84609375 12.82421875 22.9296875 C12.81777344 22.07890625 12.81132813 21.228125 12.8046875 20.3515625 C12.79421387 19.56604004 12.78374023 18.78051758 12.77294922 17.97119141 C13 16 13 16 15 14 C17.43207871 13.80799379 19.45613054 13.84850511 21.81160736 14.50462341 C24.4746401 15.10744214 26.90778724 15.11960078 29.63928223 15.11352539 C30.78859222 15.1134549 31.93790222 15.1133844 33.12203979 15.11331177 C34.37920807 15.10814545 35.63637634 15.10297913 36.93164062 15.09765625 C38.27234848 15.09573642 39.61305705 15.09427293 40.95376587 15.0932312 C43.8402489 15.09007106 46.72670265 15.0838032 49.61317444 15.07516479 C54.18706033 15.06162074 58.76093653 15.0557428 63.33483887 15.05102539 C73.88026826 15.03898321 84.42567255 15.01700173 94.97108459 14.99479675 C104.61641094 14.97456894 114.26172841 14.95649722 123.90707159 14.94658184 C128.44313462 14.94163025 132.97915202 14.93181549 137.5151968 14.91815186 C140.35429104 14.91062657 143.19337926 14.90736343 146.03248215 14.9051857 C147.95290662 14.90245781 149.87332192 14.89468312 151.79373169 14.88668823 C159.24664378 14.88623989 166.5843133 15.25176343 174 16 C174 15.34 174 14.68 174 14 C174.66 14 175.32 14 176 14 C175.69217504 12.35328588 175.37860766 10.70764424 175.0625 9.0625 C174.88847656 8.14597656 174.71445313 7.22945312 174.53515625 6.28515625 C174.22285012 4.04710156 174.22285012 4.04710156 173 3 C170.64780717 2.91717503 168.32489456 2.89886888 165.97290039 2.92211914 C164.86358689 2.9265783 164.86358689 2.9265783 163.73186302 2.93112755 C162.1097556 2.93773802 160.48765562 2.9464015 158.86556816 2.95681572 C154.41447874 2.98413989 149.96336783 2.99279594 145.51220703 3.00048828 C144.57353381 3.00222644 143.63486059 3.0039646 142.66774273 3.00575542 C132.23429577 3.01608094 121.80340811 2.88752805 111.37109375 2.74609375 C109.46888301 2.72118358 107.5666715 2.6963322 105.66445923 2.67153931 C97.93647591 2.56969692 90.20856361 2.4632554 82.48071289 2.35180664 C77.65069382 2.28242095 72.82062845 2.21823595 67.99049568 2.15730476 C66.17842924 2.13339545 64.36638791 2.10748892 62.55438042 2.07946587 C60.05248656 2.0408447 57.55058752 2.00882356 55.04858398 1.97827148 C54.31791214 1.96532547 53.5872403 1.95237946 52.83442688 1.93904114 C48.76709887 1.8971766 44.99298182 2.24713867 41 3 C39.36414814 3.0143411 37.72684118 2.9749801 36.09375 2.87890625 C35.19116455 2.83024414 34.2885791 2.78158203 33.35864258 2.73144531 C32.41529053 2.67569336 31.47193848 2.61994141 30.5 2.5625 C28.5352553 2.46287089 26.57040953 2.36521532 24.60546875 2.26953125 C23.65075684 2.2226416 22.69604492 2.17575195 21.71240234 2.12744141 C18.07782913 1.95667208 14.4506249 1.82223027 10.8125 1.75 C9.21341797 1.71132813 9.21341797 1.71132813 7.58203125 1.671875 C5.03597938 1.80085378 5.03597938 1.80085378 3.36354351 3.08984852 C1.3041567 5.97478819 1.61407777 8.37424424 1.60127258 11.89054871 C1.59462576 12.59548299 1.58797893 13.30041727 1.58113068 14.02671319 C1.56244239 16.39450078 1.56510979 18.76178563 1.56762695 21.12963867 C1.55861332 22.82464821 1.54828709 24.5196512 1.53674316 26.21464539 C1.50910007 30.8217759 1.49987876 35.42878299 1.49388909 40.03598571 C1.4845244 44.84869158 1.45832261 49.66130456 1.43388367 54.47395325 C1.39016245 63.58990496 1.36165005 72.70583871 1.33856028 81.82186347 C1.31153871 92.19905611 1.26762536 102.57615557 1.22227156 112.95328176 C1.12934477 134.30213776 1.05770087 155.65102165 1 177 C5.29 177 9.58 177 14 177 C14 167.1 14 157.2 14 147 C14.33 147 14.66 147 15 147 C15 157.23 15 167.46 15 178 C10.05 178 5.1 178 0 178 C0 119.26 0 60.52 0 0 Z " fill="#F4F5F6" transform="translate(42,44)"/>
<path d="M0 0 C33.74241073 -0.0228654 67.48481954 -0.04049773 101.2272363 -0.05106533 C105.20658528 -0.05231611 109.18593424 -0.05361042 113.1652832 -0.05493164 C113.95753381 -0.05519395 114.74978441 -0.05545626 115.56604261 -0.05572652 C128.41112421 -0.06008341 141.25620137 -0.06797106 154.10128032 -0.0771528 C167.2715794 -0.08648882 180.44187614 -0.0920555 193.61217839 -0.09408849 C201.74558286 -0.09546383 209.87897476 -0.09981499 218.01237536 -0.10791647 C224.2384226 -0.11380394 230.46446015 -0.11445909 236.6905098 -0.11310768 C239.2524441 -0.11338422 241.81437886 -0.11539207 244.37631035 -0.11920547 C247.8573318 -0.12413549 251.33829812 -0.12300085 254.81932068 -0.12025452 C255.84750914 -0.12316736 256.87569759 -0.1260802 257.93504328 -0.12908131 C258.86013415 -0.12709026 259.78522503 -0.12509921 260.73834896 -0.12304783 C261.54297634 -0.12342755 262.34760372 -0.12380727 263.17661375 -0.1241985 C265 -0 265 -0 266 1 C266.09804809 4.09714258 266.12990642 7.17200116 266.12025452 10.26954651 C266.12153615 11.74703232 266.12153615 11.74703232 266.12284368 13.25436634 C266.12450147 16.58178635 266.11897225 19.90915684 266.11352539 23.23657227 C266.11324356 25.6110738 266.11340118 27.98557542 266.1139679 30.3600769 C266.11422605 36.1559002 266.10987473 41.95170706 266.10353024 47.74752659 C266.0963963 54.48902125 266.09488635 61.23051353 266.09374207 67.97201144 C266.09155123 79.99526046 266.08489027 92.01850271 266.07543945 104.04174805 C266.06626616 115.72403937 266.05918492 127.40632885 266.05493164 139.08862305 C266.05453756 140.16802786 266.05453756 140.16802786 266.05413551 141.26923884 C266.05283051 144.87912936 266.05156679 148.4890199 266.05032361 152.09891045 C266.03995 182.06594504 266.02225669 212.03297173 266 242 C265.67 242 265.34 242 265 242 C264.8684012 217.10106716 264.73796468 192.20212845 264.60884857 167.3031826 C264.54884883 155.7377634 264.48849272 144.17234627 264.42724609 132.60693359 C264.37375883 122.50656689 264.32099267 112.4061967 264.26903296 102.30582201 C264.24159057 96.97592621 264.2138277 91.64603259 264.18519592 86.31614304 C264.15817504 81.28571614 264.13224929 76.25528452 264.10689068 71.22484899 C264.09200548 68.34648986 264.07579048 65.46814017 264.05954742 62.58978844 C264.01071583 53.33632952 263.99958388 44.08480342 264.05688477 34.83135986 C264.06568334 33.05272293 264.07435566 31.27408536 264.08289337 29.49544716 C264.09893244 26.18932345 264.12790453 22.88366992 264.16460419 19.57771873 C264.1727725 18.10614662 264.18047333 16.63457181 264.18762207 15.16299438 C264.19948799 13.89369394 264.21135391 12.6243935 264.22357941 11.31662941 C264.00634271 8.09408929 263.39180057 5.89030299 262 3 C259.69 3 257.38 3 255 3 C255 2.67 255 2.34 255 2 C242.13 2 229.26 2 216 2 C216 2.33 216 2.66 216 3 C213.64575325 3.02726927 211.29183038 3.04696719 208.9375 3.0625 C206.97103516 3.07990234 206.97103516 3.07990234 204.96484375 3.09765625 C201.1836481 3.00452335 197.72079293 2.61448726 194 2 C194 2.33 194 2.66 194 3 C186.41 3 178.82 3 171 3 C171 2.67 171 2.34 171 2 C168.36 1.67 165.72 1.34 163 1 C163 1.66 163 2.32 163 3 C160.36 2.34 157.72 1.68 155 1 C154.67 1.66 154.34 2.32 154 3 C142.85607977 3.02315917 131.71216525 3.04093337 120.56822586 3.05181217 C115.39378256 3.05703315 110.21935571 3.06411662 105.04492188 3.07543945 C100.05233346 3.08629614 95.05976087 3.09228276 90.06716156 3.09487724 C88.1613617 3.09672646 86.25556272 3.10033746 84.34976959 3.10573006 C81.68270487 3.11297734 79.01570578 3.11398937 76.34863281 3.11352539 C75.1639592 3.1189183 75.1639592 3.1189183 73.95535278 3.12442017 C68.44633878 3.11403355 68.44633878 3.11403355 65.90650558 2.46514034 C63.62088861 1.90750617 62.21298494 2.28868341 60 3 C60 2.34 60 1.68 60 1 C59.34 1.66 58.68 2.32 58 3 C54.875 3.125 54.875 3.125 52 3 C52 2.67 52 2.34 52 2 C46.16504217 1.97516551 40.33011554 1.95707651 34.49511719 1.94506836 C32.51268986 1.94005897 30.53026618 1.9332496 28.54785156 1.92456055 C25.68814182 1.91234571 22.8284812 1.90673761 19.96875 1.90234375 C19.09134155 1.89718246 18.21393311 1.89202118 17.30993652 1.88670349 C12.11374994 1.88623641 7.14282427 2.24783592 2 3 C2 5.31 2 7.62 2 10 C1.67 10 1.34 10 1 10 C1.03255208 7.98177083 1.06510417 5.96354167 1.09765625 3.9453125 C1.12649242 1.91814596 1.12649242 1.91814596 0 0 Z M104 1 C104 1.33 104 1.66 104 2 C106.31 2 108.62 2 111 2 C111 1.67 111 1.34 111 1 C108.69 1 106.38 1 104 1 Z " fill="#C5C9CB" transform="translate(13,11)"/>
<path d="M0 0 C5.28 0 10.56 0 16 0 C16.02311649 23.06066139 16.04097794 46.12132 16.05181217 69.18199062 C16.05697567 79.88866507 16.06401937 90.5953322 16.07543945 101.30200195 C16.08538467 110.63036083 16.09185304 119.95871441 16.09408849 129.28707844 C16.09539588 134.22958949 16.09848348 139.17208539 16.10573006 144.1145916 C16.11248771 148.76101235 16.11461748 153.40741162 16.11310768 158.05383682 C16.11338412 159.76434127 16.11539075 161.47484639 16.11920547 163.1853466 C16.12413875 165.51030499 16.12299966 167.83518092 16.12025452 170.16014099 C16.12163721 172.1166466 16.12163721 172.1166466 16.12304783 174.11267757 C16 177 16 177 15 178 C12.72176255 178.09709071 10.44044577 178.12186604 8.16014099 178.12025452 C7.0746762 178.12153615 7.0746762 178.12153615 5.96728283 178.12284368 C3.52430654 178.12450062 1.08139778 178.11897365 -1.36157227 178.11352539 C-3.10553994 178.11324354 -4.84950774 178.11340121 -6.59347534 178.1139679 C-11.34327495 178.11425595 -16.09304953 178.10835797 -20.84284329 178.10139394 C-25.80098422 178.09516169 -30.75912566 178.0945567 -35.7172699 178.09336853 C-45.11309828 178.09025483 -54.50891509 178.08204093 -63.90473837 178.07201904 C-74.59863149 178.06085909 -85.29252516 178.05534775 -95.98642266 178.05032361 C-117.99095508 178.03985834 -139.99547641 178.02205779 -162 178 C-162 172.39 -162 166.78 -162 161 C-108.54 161 -55.08 161 0 161 C0 107.87 0 54.74 0 0 Z M3.125 3 C2.568125 3.99 2.568125 3.99 2 5 C1.67 5 1.34 5 1 5 C1 56.81 1 108.62 1 162 C-52.46 162 -105.92 162 -161 162 C-161 166.95 -161 171.9 -161 177 C-102.92 177 -44.84 177 15 177 C15.061875 149.445 15.12375 121.89 15.1875 93.5 C15.21481201 84.80205078 15.24212402 76.10410156 15.27026367 67.14257812 C15.28029748 59.34027278 15.28029748 59.34027278 15.28633118 51.53796387 C15.28912415 48.06492351 15.30035868 44.59202098 15.31672668 41.11901855 C15.33734631 36.68497064 15.34346565 32.25112232 15.33921683 27.81703091 C15.34010492 26.19224143 15.34602882 24.56744477 15.35764539 22.94269657 C15.47718282 11.63449517 15.47718282 11.63449517 12 1 C7.0140885 0.38664279 7.0140885 0.38664279 3.125 3 Z " fill="#8F9598" transform="translate(234,44)"/>
<path d="M0 0 C0.33 0 0.66 0 1 0 C1 4.29 1 8.58 1 13 C1.66 13 2.32 13 3 13 C2.97265274 13.88005203 2.94530548 14.76010406 2.91712952 15.66682434 C2.13721329 41.88314105 1.85108516 68.0982248 1.68359375 94.32421875 C1.6786135 95.09904799 1.67363326 95.87387722 1.66850209 96.67218614 C1.58337199 110.01057967 1.51165723 123.34903925 1.4375 136.6875 C1.293125 161.540625 1.14875 186.39375 1 212 C-76.88 212 -154.76 212 -235 212 C-235 211.67 -235 211.34 -235 211 C-157.45 211 -79.9 211 0 211 C0 141.37 0 71.74 0 0 Z " fill="#9CA3A7" transform="translate(263,27)"/>
<path d="M0 0 C54.45 0 108.9 0 165 0 C164.34 0.33 163.68 0.66 163 1 C163 1.66 163 2.32 163 3 C160.36 2.34 157.72 1.68 155 1 C154.67 1.66 154.34 2.32 154 3 C142.85607977 3.02315917 131.71216525 3.04093337 120.56822586 3.05181217 C115.39378256 3.05703315 110.21935571 3.06411662 105.04492188 3.07543945 C100.05233346 3.08629614 95.05976087 3.09228276 90.06716156 3.09487724 C88.1613617 3.09672646 86.25556272 3.10033746 84.34976959 3.10573006 C81.68270487 3.11297734 79.01570578 3.11398937 76.34863281 3.11352539 C75.1639592 3.1189183 75.1639592 3.1189183 73.95535278 3.12442017 C68.44633878 3.11403355 68.44633878 3.11403355 65.90650558 2.46514034 C63.62088861 1.90750617 62.21298494 2.28868341 60 3 C60 2.34 60 1.68 60 1 C59.34 1.66 58.68 2.32 58 3 C54.875 3.125 54.875 3.125 52 3 C52 2.67 52 2.34 52 2 C46.16504217 1.97516551 40.33011554 1.95707651 34.49511719 1.94506836 C32.51268986 1.94005897 30.53026618 1.9332496 28.54785156 1.92456055 C25.68814182 1.91234571 22.8284812 1.90673761 19.96875 1.90234375 C19.09134155 1.89718246 18.21393311 1.89202118 17.30993652 1.88670349 C12.11374994 1.88623641 7.14282427 2.24783592 2 3 C2 5.31 2 7.62 2 10 C1.67 10 1.34 10 1 10 C1.03255208 7.98177083 1.06510417 5.96354167 1.09765625 3.9453125 C1.12649242 1.91814596 1.12649242 1.91814596 0 0 Z M104 1 C104 1.33 104 1.66 104 2 C106.31 2 108.62 2 111 2 C111 1.67 111 1.34 111 1 C108.69 1 106.38 1 104 1 Z " fill="#E1E4E5" transform="translate(13,11)"/>
<path d="M0 0 C0.33 0 0.66 0 1 0 C1 5.61 1 11.22 1 17 C-19.95724949 17.02312352 -40.91449593 17.04098156 -61.8717556 17.05181217 C-71.60200814 17.0569741 -81.33225263 17.06401484 -91.0625 17.07543945 C-99.54083913 17.08538944 -108.01917242 17.09185418 -116.49751723 17.09408849 C-120.9890176 17.09539506 -125.48050127 17.09847755 -129.97199631 17.10573006 C-134.1957212 17.11249522 -138.41942244 17.11461594 -142.64315224 17.11310768 C-144.1968187 17.11338378 -145.75048592 17.11538598 -147.30414772 17.11920547 C-149.41856407 17.12415045 -151.53289009 17.12299529 -153.64730835 17.12025452 C-154.83273413 17.12117631 -156.0181599 17.1220981 -157.23950768 17.12304783 C-160 17 -160 17 -162 16 C-162.33 22.27 -162.66 28.54 -163 35 C-163.33 35 -163.66 35 -164 35 C-164.05791844 31.87507749 -164.09356746 28.75029234 -164.125 25.625 C-164.14175781 24.73554687 -164.15851563 23.84609375 -164.17578125 22.9296875 C-164.18222656 22.07890625 -164.18867188 21.228125 -164.1953125 20.3515625 C-164.20578613 19.56604004 -164.21625977 18.78051758 -164.22705078 17.97119141 C-164 16 -164 16 -162 14 C-159.56792129 13.80799379 -157.54386946 13.84850511 -155.18839264 14.50462341 C-152.5253599 15.10744214 -150.09221276 15.11960078 -147.36071777 15.11352539 C-146.21140778 15.1134549 -145.06209778 15.1133844 -143.87796021 15.11331177 C-142.62079193 15.10814545 -141.36362366 15.10297913 -140.06835938 15.09765625 C-138.72765152 15.09573642 -137.38694295 15.09427293 -136.04623413 15.0932312 C-133.1597511 15.09007106 -130.27329735 15.0838032 -127.38682556 15.07516479 C-122.81293967 15.06162074 -118.23906347 15.0557428 -113.66516113 15.05102539 C-103.11973174 15.03898321 -92.57432745 15.01700173 -82.02891541 14.99479675 C-72.38358906 14.97456894 -62.73827159 14.95649722 -53.09292841 14.94658184 C-48.55686538 14.94163025 -44.02084798 14.93181549 -39.4848032 14.91815186 C-36.64570896 14.91062657 -33.80662074 14.90736343 -30.96751785 14.9051857 C-29.04709338 14.90245781 -27.12667808 14.89468312 -25.20626831 14.88668823 C-17.75335622 14.88623989 -10.4156867 15.25176343 -3 16 C-3 15.34 -3 14.68 -3 14 C-2.34 14 -1.68 14 -1 14 C-0.67 9.38 -0.34 4.76 0 0 Z " fill="#D0D4D5" transform="translate(219,44)"/>
<path d="M0 0 C0.33 0 0.66 0 1 0 C1.06058594 0.59167969 1.12117187 1.18335938 1.18359375 1.79296875 C1.62012371 5.90978208 2.08671346 9.95544533 3 14 C2.34 14 1.68 14 1 14 C1.24417637 14.86702762 1.24417637 14.86702762 1.4932856 15.75157094 C2.32474261 19.44097091 2.11220045 23.183809 2.08229065 26.94696045 C2.07906152 27.86101032 2.07583239 28.7750602 2.07250541 29.71680856 C2.06042093 32.78618283 2.04104993 35.85546807 2.02172852 38.92480469 C2.01158673 41.12240912 2.00189295 43.32001566 1.99261475 45.5176239 C1.96612377 51.49036601 1.93334623 57.46305921 1.89946485 63.43576336 C1.86513174 69.67511477 1.83654576 75.91449241 1.80735779 82.15386963 C1.75757985 92.62847676 1.70424596 103.10306153 1.64819336 113.57763672 C1.59046937 124.36636261 1.53488418 135.15509603 1.48217773 145.94384766 C1.47892802 146.60889678 1.4756783 147.2739459 1.4723301 147.95914802 C1.45604037 151.2955132 1.43979501 154.6318786 1.42356598 157.96824408 C1.28880625 185.64553018 1.14678282 213.32277523 1 241 C0.67 241 0.34 241 0 241 C0 161.47 0 81.94 0 0 Z " fill="#848B8F" transform="translate(12,12)"/>
<path d="M0 0 C0 3.63 0 7.26 0 11 C-2.46278801 8.53721199 -2.99771255 6.29323018 -4 3 C-5.42699974 3.00392761 -5.42699974 3.00392761 -6.88282776 3.00793457 C-32.6435738 3.07190543 -58.39521751 2.87659727 -84.15356445 2.53643799 C-88.90248334 2.474281 -93.65143854 2.4150253 -98.40039062 2.35546875 C-107.60029642 2.23969355 -116.80016038 2.12091176 -126 2 C-126 1.67 -126 1.34 -126 1 C-115.87513718 0.82458491 -105.75013903 0.65858197 -95.625 0.5 C-94.866996 0.48812275 -94.108992 0.4762455 -93.32801819 0.46400833 C-62.21632966 -0.01994002 -31.1154568 -0.11631612 0 0 Z " fill="#FCFCFC" transform="translate(219,44)"/>
<path d="M0 0 C1.21816406 0.03480469 1.21816406 0.03480469 2.4609375 0.0703125 C3.68683594 0.09738281 3.68683594 0.09738281 4.9375 0.125 C5.87722656 0.15980469 5.87722656 0.15980469 6.8359375 0.1953125 C6.85931393 7.38539212 6.87697951 14.57546329 6.88774967 21.7655735 C6.892924 25.10577894 6.90047876 28.4459383 6.91137695 31.78613281 C6.92363982 35.64388702 6.92921066 39.50160472 6.93359375 43.359375 C6.93875504 44.53392242 6.94391632 45.70846985 6.94923401 46.91860962 C6.94977266 55.04950282 6.51312344 63.09336412 5.8359375 71.1953125 C5.5059375 71.1953125 5.1759375 71.1953125 4.8359375 71.1953125 C4.84037872 70.40461868 4.84481995 69.61392487 4.84939575 68.79927063 C4.88950628 61.33975018 4.91993907 53.88028219 4.93956184 46.42068195 C4.94998931 42.58582767 4.9641295 38.75106267 4.98681641 34.91625977 C5.00858188 31.21394666 5.02051393 27.51171931 5.02569199 23.80934715 C5.0293811 22.39838499 5.03658504 20.9874274 5.04739761 19.57650185 C5.06196092 17.5970278 5.06275484 15.61746706 5.06298828 13.63793945 C5.0674295 12.51208939 5.07187073 11.38623932 5.07644653 10.22627258 C4.8330546 7.15898136 4.13783641 4.96513739 2.8359375 2.1953125 C0.5259375 2.1953125 -1.7840625 2.1953125 -4.1640625 2.1953125 C-2.1640625 0.1953125 -2.1640625 0.1953125 0 0 Z " fill="#D0D3D5" transform="translate(272.1640625,11.8046875)"/>
<path d="M0 0 C2.625 0.1875 2.625 0.1875 4.34082031 0.69311523 C7.51717933 1.38060209 10.54859356 1.29846888 13.796875 1.28515625 C14.4792926 1.2837413 15.16171021 1.28232635 15.86480713 1.28086853 C18.03491684 1.27529084 20.2049217 1.26274254 22.375 1.25 C23.85025892 1.24498211 25.32551947 1.24041971 26.80078125 1.23632812 C30.40888798 1.22532875 34.01693375 1.20807953 37.625 1.1875 C37.625 1.8475 37.625 2.5075 37.625 3.1875 C32.24984067 3.21217759 26.87471415 3.23034928 21.49951172 3.24243164 C19.67007879 3.24746737 17.84064991 3.25429627 16.01123047 3.26293945 C13.38508102 3.27503824 10.75898468 3.28073583 8.1328125 3.28515625 C7.31193146 3.29031754 6.49105042 3.29547882 5.64529419 3.30079651 C-0.14725659 3.30137171 -0.14725659 3.30137171 -2.375 2.1875 C-2.705 8.4575 -3.035 14.7275 -3.375 21.1875 C-3.705 21.1875 -4.035 21.1875 -4.375 21.1875 C-4.43291844 18.06257749 -4.46856746 14.93779234 -4.5 11.8125 C-4.51675781 10.92304687 -4.53351562 10.03359375 -4.55078125 9.1171875 C-4.55722656 8.26640625 -4.56367187 7.415625 -4.5703125 6.5390625 C-4.58078613 5.75354004 -4.59125977 4.96801758 -4.60205078 4.15869141 C-4.24116321 1.02556636 -3.05908443 0.24150667 0 0 Z " fill="#E1E4E5" transform="translate(59.375,57.8125)"/>
<path d="M0 0 C4.95 0 9.9 0 15 0 C15 2.97 15 5.94 15 9 C13.53867783 6.07735566 12.65900754 4.07536854 12 1 C9.69 1.33 7.38 1.66 5 2 C4.34 4.97 3.68 7.94 3 11 C2.67 11 2.34 11 2 11 C2.00523682 11.57331055 2.01047363 12.14662109 2.01586914 12.73730469 C2.18272378 33.79900736 2.18272378 33.79900736 1 44 C0.67 44 0.34 44 0 44 C0 29.48 0 14.96 0 0 Z " fill="#979EA2" transform="translate(234,44)"/>
<path d="M0 0 C15.84 0 31.68 0 48 0 C48 0.33 48 0.66 48 1 C46.89076172 1.02505615 45.78152344 1.0501123 44.63867188 1.07592773 C40.49371269 1.17063477 36.3488966 1.27069671 32.20410156 1.37231445 C30.41572434 1.41542539 28.62731224 1.45711546 26.83886719 1.49731445 C24.25705489 1.55559951 21.67541432 1.61912088 19.09375 1.68359375 C18.30383667 1.70030624 17.51392334 1.71701874 16.70007324 1.73423767 C11.73739671 1.86444514 6.9172762 2.31187519 2 3 C2 5.31 2 7.62 2 10 C1.67 10 1.34 10 1 10 C1.03255208 7.98177083 1.06510417 5.96354167 1.09765625 3.9453125 C1.12649242 1.91814596 1.12649242 1.91814596 0 0 Z " fill="#B5BBBC" transform="translate(13,11)"/>
<path d="M0 0 C0.33 0 0.66 0 1 0 C1.06058594 0.59167969 1.12117187 1.18335938 1.18359375 1.79296875 C1.62012371 5.90978208 2.08671346 9.95544533 3 14 C2.34 14 1.68 14 1 14 C1.16749756 14.51208008 1.33499512 15.02416016 1.50756836 15.55175781 C2.16449401 18.8178215 2.00169508 21.84293326 1.87890625 25.171875 C1.85529526 25.8542926 1.83168427 26.53671021 1.80735779 27.23980713 C1.7310504 29.41010058 1.64688594 31.58000714 1.5625 33.75 C1.50924627 35.22524176 1.45650611 36.70050216 1.40429688 38.17578125 C1.2754805 41.78408912 1.13961806 45.3920921 1 49 C0.67 49 0.34 49 0 49 C0 32.83 0 16.66 0 0 Z " fill="#798085" transform="translate(12,12)"/>
<path d="M0 0 C1.18613892 0.00785522 1.18613892 0.00785522 2.39624023 0.01586914 C3.67724609 0.02070312 3.67724609 0.02070312 4.98413086 0.02563477 C5.88196289 0.03401367 6.77979492 0.04239258 7.70483398 0.05102539 C8.6065332 0.05553711 9.50823242 0.06004883 10.43725586 0.06469727 C12.67234712 0.07652315 14.90730835 0.09300319 17.14233398 0.11352539 C16.48233398 1.43352539 15.82233398 2.75352539 15.14233398 4.11352539 C13.82233398 3.78352539 12.50233398 3.45352539 11.14233398 3.11352539 C11.14233398 2.78352539 11.14233398 2.45352539 11.14233398 2.11352539 C8.17233398 1.78352539 5.20233398 1.45352539 2.14233398 1.11352539 C2.14233398 1.77352539 2.14233398 2.43352539 2.14233398 3.11352539 C0.26733398 5.23852539 0.26733398 5.23852539 -1.85766602 7.11352539 C-2.51766602 7.11352539 -3.17766602 7.11352539 -3.85766602 7.11352539 C-2.82390732 0.17257418 -2.82390732 0.17257418 0 0 Z " fill="#F4F5F5" transform="translate(129.857666015625,79.886474609375)"/>
<path d="M0 0 C4.62 0 9.24 0 14 0 C14 2.97 14 5.94 14 9 C12.53867783 6.07735566 11.65900754 4.07536854 11 1 C8.69 1.33 6.38 1.66 4 2 C3.34 4.97 2.68 7.94 2 11 C1.67 11 1.34 11 1 11 C0.67 7.37 0.34 3.74 0 0 Z " fill="#FEFEFE" transform="translate(235,44)"/>
<path d="M0 0 C3.16115776 1.36983503 3.9927092 1.9890638 6 5 C6 5.99 6 6.98 6 8 C6.99 8.33 7.98 8.66 9 9 C8.01 9.99 7.02 10.98 6 12 C4.125 11.0625 4.125 11.0625 2 9 C1.04648439 6.04514944 0.48803282 3.0630481 0 0 Z " fill="#2A353C" transform="translate(195,101)"/>
<path d="M0 0 C7.92 0 15.84 0 24 0 C24 0.33 24 0.66 24 1 C22.7625 1.144375 21.525 1.28875 20.25 1.4375 C17.43495501 1.78688502 14.7298503 2.20379366 12 3 C12 2.34 12 1.68 12 1 C11.34 1.66 10.68 2.32 10 3 C5.07329218 3.53551172 4.17568185 3.13176139 0 0 Z " fill="#C9CECF" transform="translate(61,11)"/>
<path d="M0 0 C6.27 0 12.54 0 19 0 C19 0.33 19 0.66 19 1 C14.71 1 10.42 1 6 1 C5.34 2.32 4.68 3.64 4 5 C3.34 5 2.68 5 2 5 C1.34 3.35 0.68 1.7 0 0 Z " fill="#DEE0E2" transform="translate(64,80)"/>
<path d="M0 0 C0.33 0 0.66 0 1 0 C1.33 2.31 1.66 4.62 2 7 C1.34 7 0.68 7 0 7 C0 8.65 0 10.3 0 12 C-0.99 12.33 -1.98 12.66 -3 13 C-3.33 13.66 -3.66 14.32 -4 15 C-2.9318153 9.88634986 -1.76892524 4.92772031 0 0 Z M3 3 C3.33 3.66 3.66 4.32 4 5 C3.34 4.67 2.68 4.34 2 4 C2.33 3.67 2.66 3.34 3 3 Z " fill="#72787D" transform="translate(141,92)"/>
<path d="M0 0 C9.57 0 19.14 0 29 0 C29 0.33 29 0.66 29 1 C19.43 1 9.86 1 0 1 C0 0.67 0 0.34 0 0 Z " fill="#FFFFFF" transform="translate(237,13)"/>
<path d="M0 0 C0.33 0 0.66 0 1 0 C1.06058594 0.59167969 1.12117187 1.18335938 1.18359375 1.79296875 C1.62012371 5.90978208 2.08671346 9.95544533 3 14 C2.34 14 1.68 14 1 14 C1.33 15.32 1.66 16.64 2 18 C1.34 18 0.68 18 0 18 C0 12.06 0 6.12 0 0 Z " fill="#B4B8BC" transform="translate(12,12)"/>
<path d="M0 0 C1.670625 0.061875 1.670625 0.061875 3.375 0.125 C1.89 2.6 1.89 2.6 0.375 5.125 C-2.625 4.125 -2.625 4.125 -5.625 2.125 C-3.625 0.125 -3.625 0.125 0 0 Z " fill="#303A3E" transform="translate(184.625,142.875)"/>
<path d="M0 0 C0.99 0.66 1.98 1.32 3 2 C3 2.66 3 3.32 3 4 C2.34 4 1.68 4 1 4 C1.33 4.99 1.66 5.98 2 7 C0.02 6.34 -1.96 5.68 -4 5 C-3.67 4.01 -3.34 3.02 -3 2 C-2.01 2 -1.02 2 0 2 C0 1.34 0 0.68 0 0 Z " fill="#525A5F" transform="translate(206,125)"/>
<path d="M0 0 C4.29 0 8.58 0 13 0 C13 0.33 13 0.66 13 1 C11.7625 1.12375 10.525 1.2475 9.25 1.375 C6.1237803 1.75746305 3.71120763 2.30549523 1 4 C0.67 2.68 0.34 1.36 0 0 Z " fill="#F1F2F3" transform="translate(42,44)"/>
<path d="M0 0 C0.33 1.65 0.66 3.3 1 5 C0.67 4.34 0.34 3.68 0 3 C-0.66 3 -1.32 3 -2 3 C-2.33 3.99 -2.66 4.98 -3 6 C-3.99 5.01 -4.98 4.02 -6 3 C-4.60722783 0.21445565 -3.01148006 0 0 0 Z " fill="#535D64" transform="translate(68,85)"/>
<path d="M0 0 C3.125 -0.1875 3.125 -0.1875 6 0 C6 1.32 6 2.64 6 4 C3.36 3.67 0.72 3.34 -2 3 C-1.34 2.01 -0.68 1.02 0 0 Z " fill="#596165" transform="translate(181,121)"/>
<path d="M0 0 C0 2.31 0 4.62 0 7 C-0.2475 6.360625 -0.495 5.72125 -0.75 5.0625 C-1.79512909 2.8537264 -1.79512909 2.8537264 -3.875 2.3125 C-4.926875 2.1578125 -4.926875 2.1578125 -6 2 C-7.33333333 1.66666667 -8.66666667 1.33333333 -10 1 C-6.78548731 -0.60725635 -3.56387464 -0.05748185 0 0 Z " fill="#FFFFFF" transform="translate(278,12)"/>
<path d="M0 0 C3.3 0 6.6 0 10 0 C9.34 1.32 8.68 2.64 8 4 C4.30706264 3.3405469 3.29427421 2.47070566 0 0 Z " fill="#E0E3E5" transform="translate(137,80)"/>
<path d="M0 0 C0.33 0.66 0.66 1.32 1 2 C1.99 1.67 2.98 1.34 4 1 C4.33 1.99 4.66 2.98 5 4 C4.01 5.485 4.01 5.485 3 7 C1.68 5.35 0.36 3.7 -1 2 C-0.67 1.34 -0.34 0.68 0 0 Z " fill="#464D52" transform="translate(209,85)"/>
<path d="M0 0 C0.66 0.33 1.32 0.66 2 1 C2 1.66 2 2.32 2 3 C2.66 3.33 3.32 3.66 4 4 C3.01 4.495 3.01 4.495 2 5 C1.34 5.99 0.68 6.98 0 8 C-0.38063221 5.6739143 -0.71269945 3.33944736 -1 1 C-0.67 0.67 -0.34 0.34 0 0 Z " fill="#586268" transform="translate(102,139)"/>
<path d="M0 0 C2 1.8125 2 1.8125 4 4 C4 4.99 4 5.98 4 7 C4.99 7.33 5.98 7.66 7 8 C5.35 7.67 3.7 7.34 2 7 C1.34 4.69 0.68 2.38 0 0 Z " fill="#8E9397" transform="translate(197,102)"/>
<path d="M0 0 C2.91517292 1.07401108 4.77810176 1.77810176 7 4 C5.35 4.33 3.7 4.66 2 5 C1.34 3.35 0.68 1.7 0 0 Z " fill="#70777A" transform="translate(163,180)"/>
<path d="M0 0 C4.29 0 8.58 0 13 0 C13 0.33 13 0.66 13 1 C8.71 1 4.42 1 0 1 C0 0.67 0 0.34 0 0 Z " fill="#FFFFFF" transform="translate(42,13)"/>
<path d="M0 0 C0.33 0 0.66 0 1 0 C1 2.31 1 4.62 1 7 C0.67 7 0.34 7 0 7 C0 4.69 0 2.38 0 0 Z " fill="#FFFFFF" transform="translate(236,64)"/>
<path d="M0 0 C2.31 0 4.62 0 7 0 C7 0.33 7 0.66 7 1 C4.69 1 2.38 1 0 1 C0 0.67 0 0.34 0 0 Z " fill="#FFFFFF" transform="translate(32,13)"/>
<path d="M0 0 C0.33 0 0.66 0 1 0 C1 1.65 1 3.3 1 5 C0.67 5 0.34 5 0 5 C0 3.35 0 1.7 0 0 Z " fill="#FFFFFF" transform="translate(236,78)"/>
<path d="M0 0 C1 4 1 4 1 4 Z " fill="#FFFFFF" transform="translate(236,56)"/>
<path d="M0 0 C4 1 4 1 4 1 Z " fill="#FFFFFF" transform="translate(57,13)"/>
<path d="M0 0 C3 1 3 1 3 1 Z " fill="#FFFFFF" transform="translate(170,13)"/>
<path d="M0 0 C3 1 3 1 3 1 Z " fill="#FFFFFF" transform="translate(28,13)"/>
<path d="" fill="#FFFFFF" transform="translate(0,0)"/>
<path d="" fill="#FFFFFF" transform="translate(0,0)"/>
</svg>
